<?xml version="1.0" encoding="UTF-8" standalone="no"?>
<svg
  xmlns:dc="http://purl.org/dc/elements/1.1/"
  xmlns:cc="http://creativecommons.org/ns#"
  xmlns:rdf="http://www.w3.org/1999/02/22-rdf-syntax-ns#"
  xmlns:svg="http://www.w3.org/2000/svg"
  xmlns="http://www.w3.org/2000/svg"
  viewBox="0 0 764.1333 473.04932"
  height="473.04932"
  width="764.1333"
  xml:space="preserve"
  id="svg2"
  version="1.1">
  <metadata id="metadata8">
    <rdf:RDF>
      <cc:Work rdf:about="">
        <dc:format>image/svg+xml</dc:format>
        <dc:type rdf:resource="http://purl.org/dc/dcmitype/StillImage" />
      </cc:Work>
    </rdf:RDF>
  </metadata>
  <defs id="defs6" />
    <g transform="matrix(1.3333333,0,0,-1.3333333,0,473.04933)" id="g10">
    <path
       id="path12"
       style="fill:none;stroke:#939598;stroke-width:3;stroke-linecap:butt;stroke-linejoin:miter;stroke-miterlimit:10;stroke-dasharray:none;stroke-opacity:1"
       d="m 403.6,353.287 c 92.722,0 168,-78.816 168,-175.894 C 571.6,80.3151 496.322,1.5 403.6,1.5 c -92.722,0 -168,78.8151 -168,175.893 0,97.078 75.278,175.894 168,175.894 z" />
    <path
       id="path14"
       style="fill:#0093ff;fill-opacity:1;fill-rule:evenodd;stroke:none"
       d="m 467.6,285.5 c 6.623,0 12,-5.377 12,-12 0,-6.623 -5.377,-12 -12,-12 -6.623,0 -12,5.377 -12,12 0,6.623 5.377,12 12,12 z" />
    <path
       id="path16"
       style="fill:#ff9300;fill-opacity:1;fill-rule:evenodd;stroke:none"
       d="m 403.6,317.5 c 6.623,0 12,-5.377 12,-12 0,-6.623 -5.377,-12 -12,-12 -6.623,0 -12,5.377 -12,12 0,6.623 5.377,12 12,12 z" />
    <path
       id="path18"
       style="fill:#ff9300;fill-opacity:1;fill-rule:evenodd;stroke:none"
       d="m 483.6,93.5 c 6.623,0 12,-5.377 12,-12 0,-6.623 -5.377,-12 -12,-12 -6.623,0 -12,5.377 -12,12 0,6.623 5.377,12 12,12 z" />
    <path
       id="path20"
       style="fill:#939598;fill-opacity:1;fill-rule:evenodd;stroke:none"
       d="m 435.6,61.5 c 6.623,0 12,-5.377 12,-12 0,-6.623 -5.377,-12 -12,-12 -6.623,0 -12,5.377 -12,12 0,6.623 5.377,12 12,12 z" />
    <path
       id="path22"
       style="fill:#0093ff;fill-opacity:1;fill-rule:evenodd;stroke:none"
       d="m 355.6,109.5 c 6.623,0 12,-5.377 12,-12 0,-6.623 -5.377,-12 -12,-12 -6.623,0 -12,5.377 -12,12 0,6.623 5.377,12 12,12 z" />
    <path
       id="path24"
       style="fill:#000000;fill-opacity:1;fill-rule:evenodd;stroke:none"
       d="m 539.763,141.895 -56.807,0.037 -2.12,5.122 58.874,58.874 -56.75,-0.038 -0.004,6 64,0.042 c 0.708,-1.707 1.415,-3.414 2.123,-5.121 l -58.883,-58.883 49.472,-0.033 -6.145,6.144 4.242,4.243 c 4.479,-4.478 8.957,-8.957 13.435,-13.435 l -13.435,-13.435 -4.242,4.243 z" />
    <path
       id="path26"
       style="fill:#000000;fill-opacity:1;fill-rule:evenodd;stroke:none"
       d="m 463.958,201.647 -6.192,-6.194 -4.244,4.242 13.434,13.437 c 4.479,-4.477 8.958,-8.955 13.437,-13.433 l -4.243,-4.243 -6.192,6.191 v -56.8 c -0.011,-0.245 -0.035,-0.465 -0.07,-0.664 0.402,-3.493 -0.909,-8.836 -2.768,-13.153 -4.815,-11.181 -15.809,-19.465 -27.93,-20.929 -13.318,-1.608 -27.32,5.215 -34.254,16.755 -1.294,2.154 0.347,5.607 3.07,4.893 2.135,-0.56 2.933,-3.334 4.495,-5.243 7.829,-9.57 22.08,-13.23 33.576,-8.448 10.492,4.365 17.837,15.246 17.881,26.789 v 0 12.634 c -7.271,-10.424 -20.343,-16.939 -33.234,-15.38 -15.746,1.905 -29.157,15.655 -30.631,31.746 h -0.135 v 38.043 h 6 v -34.75 c 0.272,-1.424 0.094,-3.208 0.362,-4.89 2.22,-13.927 15.888,-25.09 30.131,-24.365 14.569,0.741 27.455,13.682 27.507,28.965 z" />
    <path
       id="path28"
       style="fill:#000000;fill-opacity:1;fill-rule:evenodd;stroke:none"
       d="m 389.958,193.342 h -6 v 8.262 l -24.758,-24.757 29.879,-29.879 -4.243,-4.242 -29.878,29.878 -29.879,-29.878 -4.243,4.242 29.879,29.879 -29.879,29.879 4.243,4.242 29.879,-29.878 24.885,24.885 h -8.885 v 6 h 19 z" />
    <path
       id="path30"
       style="fill:#000000;fill-opacity:1;fill-rule:evenodd;stroke:none"
       d="m 240.173,178.014 c 0.111,5.849 1.621,11.67 4.639,16.777 6.121,10.355 17.731,17.108 29.92,17.226 0.151,0.001 0.301,0.001 0.451,0 12.758,-0.124 25.132,-7.734 30.942,-19.081 2.413,-4.712 3.726,-9.973 3.826,-15.263 0.006,-0.273 -0.029,-0.555 -0.099,-0.834 -0.147,-1.345 -1.151,-2.648 -2.678,-2.825 -0.255,-0.05 -0.516,-0.058 -0.78,-0.018 h -60.139 c 1.235,-9.865 7.501,-19.19 16.616,-23.384 12.919,-5.945 29.767,-0.855 37.21,11.887 0,0 2.284,2.256 4.218,1.007 2.225,-1.438 0.652,-4.914 -1.541,-7.779 -11.896,-15.543 -37.686,-18.356 -52.545,-3.489 -6.133,6.136 -9.586,14.644 -10.004,23.298 -0.065,1.35 -0.063,1.034 -0.036,2.478 z m 63.557,1.982 c -0.024,0.594 -0.067,1.193 -0.164,1.78 -2.003,12.083 -12.469,22.344 -24.733,23.985 -13.996,1.872 -28.677,-8.048 -32.049,-21.862 -0.314,-1.287 -0.527,-2.591 -0.644,-3.903 z" />
    <path
       id="path32"
       style="fill:#000000;fill-opacity:1;fill-rule:evenodd;stroke:none"
       d="m 165.958,211.975 h 29 l 0.047,-0.001 c 0.058,0 0.117,0.001 0.178,0 12.782,-0.117 25.13,-7.728 30.942,-19.068 2.061,-4.021 3.318,-8.41 3.705,-12.931 l 0.128,-37.957 h -6 v 34.728 c -0.236,4.335 -0.087,2.958 -0.308,4.466 -1.979,13.502 -14.437,24.713 -28.699,24.763 h -28.993 v -63.957 h -6 v 69.957 z" />
    <path
       id="path34"
       style="fill:#000000;fill-opacity:1;fill-rule:evenodd;stroke:none"
       d="m 80.1602,178.047 c 0.4436,10.151 5.1495,20.179 13.1922,26.501 6.0389,4.746 13.6576,7.398 21.3796,7.469 0.151,0.001 0.301,0.001 0.451,0 12.789,-0.118 25.137,-7.744 30.941,-19.068 2.561,-4.994 4.294,-10.763 3.822,-16.191 -0.053,-0.613 -0.343,-1.168 -0.773,-1.61 -0.535,-0.641 -1.315,-1.09 -2.215,-1.13 H 86.3138 c 1.6995,-12.469 11.6533,-23.99 24.7682,-25.743 11.154,-1.491 22.86,4.122 28.755,13.842 0,0 1.326,2.114 3.207,1.877 2.229,-0.279 3.214,-2.923 1.641,-5.449 -5.116,-8.214 -13.745,-14.135 -23.218,-15.922 -15.496,-2.921 -32.4123,6.041 -38.6718,20.578 -1.8036,4.189 -2.666,8.709 -2.6695,13.241 -4e-4,0.526 0.0116,1.081 0.0345,1.605 z m 63.5828,1.971 c -0.024,0.532 -0.064,1.069 -0.148,1.596 -1.927,12.091 -12.295,22.399 -24.581,24.122 -13.987,1.962 -28.7302,-7.87 -32.187,-21.647 -0.3373,-1.344 -0.5604,-2.705 -0.6761,-4.071 z" />
    <path
       id="path36"
       style="fill:#000000;fill-opacity:1;fill-rule:evenodd;stroke:none"
       d="m 69.9577,143.213 c 0.0033,-0.173 0.0032,-0.348 0,-0.527 v -0.711 h -0.0278 c -0.1966,-3.287 -1.3292,-7.378 -2.8095,-10.816 -4.8129,-11.18 -15.8094,-19.463 -27.9293,-20.93 -13.3168,-1.611 -27.3215,5.213 -34.2552,16.755 -1.3168,2.192 0.3238,5.613 3.0699,4.893 2.1349,-0.56 2.9332,-3.333 4.4954,-5.243 7.8281,-9.57 22.0802,-13.233 33.5748,-8.448 10.4643,4.356 17.8431,15.136 17.8817,26.794 v 13.551 C 56.6796,147.347 43.4438,139.803 28.5531,142.561 14.3873,145.186 2.4387,157.47 0.3287,171.868 c -2.8382,19.367 13.0597,39.634 33.952,40.101 0.301,0.005 0.6018,0.006 0.9027,0.005 11.3977,-0.104 22.324,-6.382 28.7743,-15.717 v 15.761 h 6 z M 34.7698,205.974 C 21.5872,205.853 9.2134,195.831 6.5473,182.819 3.1624,166.298 16.5831,148.09 34.7698,147.976 c 13.8606,-0.087 26.9575,11.038 28.9063,24.943 2.2549,16.089 -11.1086,32.778 -28.3428,33.054 -0.1879,10e-4 -0.3756,0.002 -0.5635,10e-4 z" />
  </g>
</svg>